<svg viewBox="0 0 543 542" version="1.1" xmlns="http://www.w3.org/2000/svg" xmlns:xlink="http://www.w3.org/1999/xlink">
  <g>
    <path d="M196.146987,91.4802992 C197.971428,91.3590001 199.792796,91.1762036 201.611091,90.9319099 L207.846468,89.53749 L214.997622,87.2457999 L219.545491,84.6620219 L224.548498,81.4160444 L229.075861,77.2827998 L232.573414,72.5058614 L236.141489,67.3668139 L238.549214,62.1042292 L240.657349,54.7175049 L241.562121,47.773914 L241.562121,40.179127 L239.814595,33.4686063 L237.657445,27.1922163 L234.267424,20.755278 L229.744062,14.9620335 L223.585708,9.79297701 L216.738146,5.46267305 L210.80836,2.915406 L203.76774,1.39444801 L197.749928,0.575701461 L192.551363,0.575701461 L186.338492,1.39444801 L180.565048,2.915406 L175.856758,5.04935887 L171.253478,7.8281531 L165.851256,11.9407686 L160.602559,17.5579246 L156.954202,22.6970051 L154.650106,27.1922163 L152.395444,32.8262474 L151.306648,38.0264308 L150.731852,42.7641982 L150.731852,46.4506295 L150.731852,52.0932706 L152.395444,57.4770693 L153.956482,63.6948133 L156.954202,69.5004974 L159.952843,73.8925275 L163.582778,78.0370761 L168.306114,82.0815267 L173.239778,85.3291849 L178.428294,87.6719694 L183.300549,89.53749 L189.426485,90.9319099 L193.362854,91.4802992 C193.394501,91.6015984 194.322545,91.6015984 196.146987,91.4802992 Z" id="fluxel8"></path>
    <path d="M196.415134,241.904598 C198.239576,241.783299 200.060944,241.600502 201.879239,241.356208 L208.114616,239.961789 L215.26577,237.670098 L219.813639,235.08632 L224.816646,231.840343 L229.344009,227.707098 L232.841562,222.93016 L236.409637,217.791112 L238.817362,212.528528 L240.925496,205.141803 L241.830269,198.198213 L241.830269,190.603426 L240.082743,183.892905 L237.925593,177.616515 L234.535572,171.179577 L230.01221,165.386332 L223.853856,160.217276 L217.006294,155.886972 L211.076508,153.339705 L204.035888,151.818747 L198.018076,151 L192.819511,151 L186.60664,151.818747 L180.833196,153.339705 L176.124906,155.473657 L171.521626,158.252452 L166.119404,162.365067 L160.870707,167.982223 L157.22235,173.121304 L154.918253,177.616515 L152.663592,183.250546 L151.574796,188.450729 L151,193.188497 L151,196.874928 L151,202.517569 L152.663592,207.901368 L154.22463,214.119112 L157.22235,219.924796 L160.220991,224.316826 L163.850925,228.461375 L168.574262,232.505825 L173.507926,235.753483 L178.696442,238.096268 L183.568697,239.961789 L189.694633,241.356208 L193.631002,241.904598 C193.662649,242.025897 194.590693,242.025897 196.415134,241.904598 Z" id="fluxel7"></path>
    <path d="M196.415134,390.904598 C198.239576,390.783299 200.060944,390.600502 201.879239,390.356208 L208.114616,388.961789 L215.26577,386.670098 L219.813639,384.08632 L224.816646,380.840343 L229.344009,376.707098 L232.841562,371.93016 L236.409637,366.791112 L238.817362,361.528528 L240.925496,354.141803 L241.830269,347.198213 L241.830269,339.603426 L240.082743,332.892905 L237.925593,326.616515 L234.535572,320.179577 L230.01221,314.386332 L223.853856,309.217276 L217.006294,304.886972 L211.076508,302.339705 L204.035888,300.818747 L198.018076,300 L192.819511,300 L186.60664,300.818747 L180.833196,302.339705 L176.124906,304.473657 L171.521626,307.252452 L166.119404,311.365067 L160.870707,316.982223 L157.22235,322.121304 L154.918253,326.616515 L152.663592,332.250546 L151.574796,337.450729 L151,342.188497 L151,345.874928 L151,351.517569 L152.663592,356.901368 L154.22463,363.119112 L157.22235,368.924796 L160.220991,373.316826 L163.850925,377.461375 L168.574262,381.505825 L173.507926,384.753483 L178.696442,387.096268 L183.568697,388.961789 L189.694633,390.356208 L193.631002,390.904598 C193.662649,391.025897 194.590693,391.025897 196.415134,390.904598 Z" id="fluxel6"></path>
    <path d="M196.415134,541.904598 C198.239576,541.783299 200.060944,541.600502 201.879239,541.356208 L208.114616,539.961789 L215.26577,537.670098 L219.813639,535.08632 L224.816646,531.840343 L229.344009,527.707098 L232.841562,522.93016 L236.409637,517.791112 L238.817362,512.528528 L240.925496,505.141803 L241.830269,498.198213 L241.830269,490.603426 L240.082743,483.892905 L237.925593,477.616515 L234.535572,471.179577 L230.01221,465.386332 L223.853856,460.217276 L217.006294,455.886972 L211.076508,453.339705 L204.035888,451.818747 L198.018076,451 L192.819511,451 L186.60664,451.818747 L180.833196,453.339705 L176.124906,455.473657 L171.521626,458.252452 L166.119404,462.365067 L160.870707,467.982223 L157.22235,473.121304 L154.918253,477.616515 L152.663592,483.250546 L151.574796,488.450729 L151,493.188497 L151,496.874928 L151,502.517569 L152.663592,507.901368 L154.22463,514.119112 L157.22235,519.924796 L160.220991,524.316826 L163.850925,528.461375 L168.574262,532.505825 L173.507926,535.753483 L178.696442,538.096268 L183.568697,539.961789 L189.694633,541.356208 L193.631002,541.904598 C193.662649,542.025897 194.590693,542.025897 196.415134,541.904598 Z" id="fluxel5"></path>
    <path d="M45.5848655,390.904598 C47.4093069,390.783299 49.2306749,390.600502 51.0489698,390.356208 L57.2843474,388.961789 L64.4355008,386.670098 L68.9833703,384.08632 L73.9863768,380.840343 L78.5137401,376.707098 L82.0112933,371.93016 L85.5793677,366.791112 L87.9870927,361.528528 L90.0952276,354.141803 L91,347.198213 L91,339.603426 L89.2524738,332.892905 L87.0953242,326.616515 L83.7053034,320.179577 L79.1819413,314.386332 L73.0235869,309.217276 L66.1760249,304.886972 L60.2462393,302.339705 L53.2056192,300.818747 L47.1878071,300 L41.9892417,300 L35.7763714,300.818747 L30.0029274,302.339705 L25.2946367,304.473657 L20.6913568,307.252452 L15.2891352,311.365067 L10.0404381,316.982223 L6.39208082,322.121304 L4.08798448,326.616515 L1.83332303,332.250546 L0.744526971,337.450729 L0.169731081,342.188497 L0.169731081,345.874928 L0.169731081,351.517569 L1.83332303,356.901368 L3.39436059,363.119112 L6.39208082,368.924796 L9.3907222,373.316826 L13.0206565,377.461375 L17.7439926,381.505825 L22.6776573,384.753483 L27.8661728,387.096268 L32.7384277,388.961789 L38.864364,390.356208 L42.8007333,390.904598 C42.8323801,391.025897 43.7604242,391.025897 45.5848655,390.904598 Z" id="fluxel4"></path>
    <path d="M346.415134,391.904598 C348.239576,391.783299 350.060944,391.600502 351.879239,391.356208 L358.114616,389.961789 L365.26577,387.670098 L369.813639,385.08632 L374.816646,381.840343 L379.344009,377.707098 L382.841562,372.93016 L386.409637,367.791112 L388.817362,362.528528 L390.925496,355.141803 L391.830269,348.198213 L391.830269,340.603426 L390.082743,333.892905 L387.925593,327.616515 L384.535572,321.179577 L380.01221,315.386332 L373.853856,310.217276 L367.006294,305.886972 L361.076508,303.339705 L354.035888,301.818747 L348.018076,301 L342.819511,301 L336.60664,301.818747 L330.833196,303.339705 L326.124906,305.473657 L321.521626,308.252452 L316.119404,312.365067 L310.870707,317.982223 L307.22235,323.121304 L304.918253,327.616515 L302.663592,333.250546 L301.574796,338.450729 L301,343.188497 L301,346.874928 L301,352.517569 L302.663592,357.901368 L304.22463,364.119112 L307.22235,369.924796 L310.220991,374.316826 L313.850925,378.461375 L318.574262,382.505825 L323.507926,385.753483 L328.696442,388.096268 L333.568697,389.961789 L339.694633,391.356208 L343.631002,391.904598 C343.662649,392.025897 344.590693,392.025897 346.415134,391.904598 Z" id="fluxel3"></path>
    <path d="M497.415134,391.904598 C499.239576,391.783299 501.060944,391.600502 502.879239,391.356208 L509.114616,389.961789 L516.26577,387.670098 L520.813639,385.08632 L525.816646,381.840343 L530.344009,377.707098 L533.841562,372.93016 L537.409637,367.791112 L539.817362,362.528528 L541.925496,355.141803 L542.830269,348.198213 L542.830269,340.603426 L541.082743,333.892905 L538.925593,327.616515 L535.535572,321.179577 L531.01221,315.386332 L524.853856,310.217276 L518.006294,305.886972 L512.076508,303.339705 L505.035888,301.818747 L499.018076,301 L493.819511,301 L487.60664,301.818747 L481.833196,303.339705 L477.124906,305.473657 L472.521626,308.252452 L467.119404,312.365067 L461.870707,317.982223 L458.22235,323.121304 L455.918253,327.616515 L453.663592,333.250546 L452.574796,338.450729 L452,343.188497 L452,346.874928 L452,352.517569 L453.663592,357.901368 L455.22463,364.119112 L458.22235,369.924796 L461.220991,374.316826 L464.850925,378.461375 L469.574262,382.505825 L474.507926,385.753483 L479.696442,388.096268 L484.568697,389.961789 L490.694633,391.356208 L494.631002,391.904598 C494.662649,392.025897 495.590693,392.025897 497.415134,391.904598 Z" id="fluxel2"></path>
    <path d="M496.415134,242 C498.239576,241.878701 500.060944,241.695904 501.879239,241.451611 L508.114616,240.057191 L515.26577,237.765501 L519.813639,235.181723 L524.816646,231.935745 L529.344009,227.802501 L532.841562,223.025562 L536.409637,217.886515 L538.817362,212.62393 L540.925496,205.237206 L541.830269,198.293615 L541.830269,190.698828 L540.082743,183.988307 L537.925593,177.711917 L534.535572,171.274979 L530.01221,165.481734 L523.853856,160.312678 L517.006294,155.982374 L511.076508,153.435107 L504.035888,151.914149 L498.018076,151.095402 L492.819511,151.095402 L486.60664,151.914149 L480.833196,153.435107 L476.124906,155.56906 L471.521626,158.347854 L466.119404,162.460469 L460.870707,168.077625 L457.22235,173.216706 L454.918253,177.711917 L452.663592,183.345948 L451.574796,188.546132 L451,193.283899 L451,196.97033 L451,202.612971 L452.663592,207.99677 L454.22463,214.214514 L457.22235,220.020198 L460.220991,224.412228 L463.850925,228.556777 L468.574262,232.601227 L473.507926,235.848886 L478.696442,238.19167 L483.568697,240.057191 L489.694633,241.451611 L493.631002,242 C493.662649,242.121299 494.590693,242.121299 496.415134,242 Z" id="fluxel1"></path>
    <path d="M496.415134,92 C498.239576,91.8787008 500.060944,91.6959044 501.879239,91.4516107 L508.114616,90.0571908 L515.26577,87.7655007 L519.813639,85.1817227 L524.816646,81.9357452 L529.344009,77.8025006 L532.841562,73.0255621 L536.409637,67.8865147 L538.817362,62.62393 L540.925496,55.2372056 L541.830269,48.2936148 L541.830269,40.6988278 L540.082743,33.9883071 L537.925593,27.7119171 L534.535572,21.2749788 L530.01221,15.4817343 L523.853856,10.3126778 L517.006294,5.98237382 L511.076508,3.43510678 L504.035888,1.91414878 L498.018076,1.09540224 L492.819511,1.09540224 L486.60664,1.91414878 L480.833196,3.43510678 L476.124906,5.56905964 L471.521626,8.34785388 L466.119404,12.4604693 L460.870707,18.0776253 L457.22235,23.2167059 L454.918253,27.7119171 L452.663592,33.3459482 L451.574796,38.5461316 L451,43.283899 L451,46.9703303 L451,52.6129714 L452.663592,57.99677 L454.22463,64.214514 L457.22235,70.0201982 L460.220991,74.4122283 L463.850925,78.5567769 L468.574262,82.6012275 L473.507926,85.8488856 L478.696442,88.1916702 L483.568697,90.0571908 L489.694633,91.4516107 L493.631002,92 C493.662649,92.1212992 494.590693,92.1212992 496.415134,92 Z" id="fluxel0"></path>
  </g>
</svg>
