<svg width="100%" height="100%" viewBox="0 0 934 322" version="1.1" xmlns="http://www.w3.org/2000/svg" xmlns:xlink="http://www.w3.org/1999/xlink" xmlns:svgjs="http://svgjs.com/svgjs" preserveAspectRatio="none" style="opacity: 0.478718;" xmlns:svgjs="http://svgjs.com/svgjs">
    <g stroke="none" stroke-width="1" fill="none" fill-rule="evenodd">
        <g id="OpenDrop3" fill="gold">
            <polygon data-channels="-1" id="fluxel-r0-0" points="0.0367337309 0.0237703778 120.757851 0.0237703778 120.757851 35.3378527 80.9500547 35.3378527 80.9500547 79.2117451 120.757851 79.2117451 120.757851 119.374512 0.0367337309 119.374512" style="stroke-width: 15;"></polygon>
            <polygon data-channels="-1" id="fluxel-r0-2" points="83.2816388 40.437406 83.2816388 76.6598057 139.988013 76.6598057 139.988013 40.437406" style="stroke-width: 15;"></polygon>
            <polygon data-channels="-1" id="fluxel-r0-1" points="123.524174 0.86937061 123.524174 36.3045619 160.459667 36.3045619 160.459667 0.86937061" style="stroke-width: 15;"></polygon>
            <polygon data-channels="-1" id="fluxel-r0-4" points="161.722789 119.093366 123.805349 119.093366 123.805349 81.644738 161.722789 81.644738" style="stroke-width: 15;"></polygon>
            <polygon data-channels="-1" id="fluxel-r0-3" points="181.147609 40.6039309 181.147609 77.5767738 143.522158 77.5767738 143.522158 40.6039309" style="stroke-width: 15;"></polygon>
            <polygon data-channels="-1" id="fluxel-r2-0" points="0.0375003012 201.843679 120.758618 201.843679 120.758618 237.157761 80.9508213 237.157761 80.9508213 281.031654 120.758618 281.031654 120.758618 321.194421 0.0375003012 321.194421" style="stroke-width: 15;"></polygon>
            <polygon data-channels="-1" id="fluxel-r2-2" points="83.288169 242.26491 83.288169 278.48731 139.994543 278.48731 139.994543 242.26491" style="stroke-width: 15;"></polygon>
            <polygon data-channels="-1" id="fluxel-r2-1" points="123.525992 202.706099 123.525992 238.14129 160.461485 238.14129 160.461485 202.706099" style="stroke-width: 15;"></polygon>
            <polygon data-channels="-1" id="fluxel-r2-4" points="161.705934 320.922196 123.788494 320.922196 123.788494 283.473568 161.705934 283.473568" style="stroke-width: 15;"></polygon>
            <polygon data-channels="-1" id="fluxel-r2-3" points="181.139104 242.414896 181.139104 279.387739 143.513653 279.387739 143.513653 242.414896" style="stroke-width: 15;"></polygon>
            <polygon data-channels="0" id="fluxel0-0" points="184.266481 37.4702359 221.658342 37.4702359 221.658342 0.170831288 184.266481 0.170831288" style="stroke-width: 15;"></polygon>
            <polygon data-channels="14" id="fluxel1-0" points="184.27648 78.3580761 221.66834 78.3580761 221.66834 41.0586715 184.27648 41.0586715" style="stroke-width: 15;"></polygon>
            <polygon data-channels="28" id="fluxel2-0" points="184.27648 118.704314 221.66834 118.704314 221.66834 81.4049094 184.27648 81.4049094" style="stroke-width: 15;"></polygon>
            <polygon data-channels="42" id="fluxel4-0" points="184.27648 159.38802 221.66834 159.38802 221.66834 122.088616 184.27648 122.088616" style="stroke-width: 15;"></polygon>
            <polygon data-channels="56" id="fluxel5-0" points="184.27648 199.359293 221.66834 199.359293 221.66834 162.059889 184.27648 162.059889" style="stroke-width: 15;"></polygon>
            <polygon data-channels="70" id="fluxel6-0" points="184.31398 240.230482 221.705841 240.230482 221.705841 202.931078 184.31398 202.931078" style="stroke-width: 15;"></polygon>
            <polygon data-channels="84" id="fluxel7-0" points="184.31398 280.57672 221.705841 280.57672 221.705841 243.277316 184.31398 243.277316" style="stroke-width: 15;"></polygon>
            <polygon data-channels="98" id="fluxel8-0" points="184.31398 321.260427 221.705841 321.260427 221.705841 283.961022 184.31398 283.961022" style="stroke-width: 15;"></polygon>
            <polygon data-channels="1" id="fluxel0-1" points="224.851806 37.4702359 262.243666 37.4702359 262.243666 0.170831288 224.851806 0.170831288" style="stroke-width: 15; stroke: rgb(255, 0, 0); fill: rgb(0, 255, 0);"></polygon>
            <polygon data-channels="15" id="fluxel1-1" points="224.851806 78.3580761 262.243666 78.3580761 262.243666 41.0586715 224.851806 41.0586715" style="stroke-width: 15;"></polygon>
            <polygon data-channels="29" id="fluxel2-1" points="224.851806 119.374512 262.243666 119.374512 262.243666 82.0751075 224.851806 82.0751075" style="stroke-width: 15;"></polygon>
            <polygon data-channels="43" id="fluxel4-1" points="224.851806 159.38802 262.243666 159.38802 262.243666 122.088616 224.851806 122.088616" style="stroke-width: 15;"></polygon>
            <polygon data-channels="57" id="fluxel5-1" points="224.851806 199.359293 262.243666 199.359293 262.243666 162.059889 224.851806 162.059889" style="stroke-width: 15;"></polygon>
            <polygon data-channels="71" id="fluxel6-1" points="224.851806 240.230482 262.243666 240.230482 262.243666 202.931078 224.851806 202.931078" style="stroke-width: 15;"></polygon>
            <polygon data-channels="85" id="fluxel7-1" points="224.851806 280.164259 262.243666 280.164259 262.243666 242.864854 224.851806 242.864854" style="stroke-width: 15;"></polygon>
            <polygon data-channels="99" id="fluxel8-1" points="224.851806 320.772972 262.243666 320.772972 262.243666 283.473568 224.851806 283.473568" style="stroke-width: 15;"></polygon>
            <polygon data-channels="2" id="fluxel0-2" points="265.389632 37.4868871 302.781492 37.4868871 302.781492 0.187482518 265.389632 0.187482518" style="stroke-width: 15;"></polygon>
            <polygon data-channels="16" id="fluxel1-2" points="265.389632 78.3580761 302.781492 78.3580761 302.781492 41.0586715 265.389632 41.0586715" style="stroke-width: 15;"></polygon>
            <polygon data-channels="30" id="fluxel2-2" points="265.389632 118.704314 302.781492 118.704314 302.781492 81.4049094 265.389632 81.4049094" style="stroke-width: 15;"></polygon>
            <polygon data-channels="44" id="fluxel4-2" points="265.389632 159.38802 302.781492 159.38802 302.781492 122.088616 265.389632 122.088616" style="stroke-width: 15;"></polygon>
            <polygon data-channels="58" id="fluxel5-2" points="265.389632 199.359293 302.781492 199.359293 302.781492 162.059889 265.389632 162.059889" style="stroke-width: 15;"></polygon>
            <polygon data-channels="72" id="fluxel6-2" points="265.427132 240.230482 302.818992 240.230482 302.818992 202.931078 265.427132 202.931078" style="stroke-width: 15;"></polygon>
            <polygon data-channels="86" id="fluxel7-2" points="265.427132 280.57672 302.818992 280.57672 302.818992 243.277316 265.427132 243.277316" style="stroke-width: 15;"></polygon>
            <polygon data-channels="100" id="fluxel8-2" points="265.427132 321.260427 302.818992 321.260427 302.818992 283.961022 265.427132 283.961022" style="stroke-width: 15;"></polygon>
            <polygon data-channels="3" id="fluxel0-3" points="305.964958 37.4868871 343.356818 37.4868871 343.356818 0.187482518 305.964958 0.187482518" style="stroke-width: 15;"></polygon>
            <polygon data-channels="17" id="fluxel1-4" points="305.964958 78.3580761 343.356818 78.3580761 343.356818 41.0586715 305.964958 41.0586715" style="stroke-width: 15;"></polygon>
            <polygon data-channels="31" id="fluxel2-3" points="305.964958 119.379251 343.356818 119.379251 343.356818 82.0798465 305.964958 82.0798465" style="stroke-width: 15;"></polygon>
            <polygon data-channels="45" id="fluxel4-3" points="305.964958 159.38802 343.356818 159.38802 343.356818 122.088616 305.964958 122.088616" style="stroke-width: 15;"></polygon>
            <polygon data-channels="59" id="fluxel5-3" points="305.964958 199.359293 343.356818 199.359293 343.356818 162.059889 305.964958 162.059889" style="stroke-width: 15;"></polygon>
            <polygon data-channels="73" id="fluxel6-3" points="305.964958 240.230482 343.356818 240.230482 343.356818 202.931078 305.964958 202.931078" style="stroke-width: 15;"></polygon>
            <polygon data-channels="87" id="fluxel7-3" points="305.964958 280.164259 343.356818 280.164259 343.356818 242.864854 305.964958 242.864854" style="stroke-width: 15;"></polygon>
            <polygon data-channels="101" id="fluxel8-3" points="305.964958 320.772972 343.356818 320.772972 343.356818 283.473568 305.964958 283.473568" style="stroke-width: 15;"></polygon>
            <polygon data-channels="4" id="fluxel0-4" points="347.027787 37.6368731 384.419648 37.6368731 384.419648 0.337468533 347.027787 0.337468533" style="stroke-width: 15;"></polygon>
            <polygon data-channels="18" id="fluxel1-5" points="347.027787 78.5455586 384.419648 78.5455586 384.419648 41.246154 347.027787 41.246154" style="stroke-width: 15;"></polygon>
            <polygon data-channels="32" id="fluxel2-4" points="347.027787 118.891797 384.419648 118.891797 384.419648 81.5923919 347.027787 81.5923919" style="stroke-width: 15;"></polygon>
            <polygon data-channels="46" id="fluxel4-4" points="347.027787 159.575503 384.419648 159.575503 384.419648 122.276098 347.027787 122.276098" style="stroke-width: 15;"></polygon>
            <polygon data-channels="60" id="fluxel5-4" points="347.027787 199.546776 384.419648 199.546776 384.419648 162.247371 347.027787 162.247371" style="stroke-width: 15;"></polygon>
            <polygon data-channels="74" id="fluxel6-4" points="347.065288 240.417965 384.457148 240.417965 384.457148 203.11856 347.065288 203.11856" style="stroke-width: 15;"></polygon>
            <polygon data-channels="88" id="fluxel7-4" points="347.065288 280.764203 384.457148 280.764203 384.457148 243.464798 347.065288 243.464798" style="stroke-width: 15;"></polygon>
            <polygon data-channels="102" id="fluxel8-4" points="347.065288 321.447909 384.457148 321.447909 384.457148 284.148505 347.065288 284.148505" style="stroke-width: 15;"></polygon>
            <polygon data-channels="5" id="fluxel0-5" points="387.603113 37.6368731 424.994974 37.6368731 424.994974 0.337468533 387.603113 0.337468533" style="stroke-width: 15;"></polygon>
            <polygon data-channels="19" id="fluxel1-6" points="387.603113 78.5455586 424.994974 78.5455586 424.994974 41.246154 387.603113 41.246154" style="stroke-width: 15;"></polygon>
            <polygon data-channels="33" id="fluxel2-5" points="387.603113 119.566734 424.994974 119.566734 424.994974 82.267329 387.603113 82.267329" style="stroke-width: 15;"></polygon>
            <polygon data-channels="47" id="fluxel4-5" points="387.603113 159.575503 424.994974 159.575503 424.994974 122.276098 387.603113 122.276098" style="stroke-width: 15;"></polygon>
            <polygon data-channels="61" id="fluxel5-5" points="387.603113 199.546776 424.994974 199.546776 424.994974 162.247371 387.603113 162.247371" style="stroke-width: 15;"></polygon>
            <polygon data-channels="75" id="fluxel6-5" points="387.603113 240.417965 424.994974 240.417965 424.994974 203.11856 387.603113 203.11856" style="stroke-width: 15;"></polygon>
            <polygon data-channels="89" id="fluxel7-5" points="387.603113 280.351741 424.994974 280.351741 424.994974 243.052337 387.603113 243.052337" style="stroke-width: 15;"></polygon>
            <polygon data-channels="103" id="fluxel8-5" points="387.603113 320.960455 424.994974 320.960455 424.994974 283.66105 387.603113 283.66105" style="stroke-width: 15;"></polygon>
            <polygon data-channels="6" id="fluxel0-6" points="428.140939 37.6743696 465.532799 37.6743696 465.532799 0.374965036 428.140939 0.374965036" style="stroke-width: 15;"></polygon>
            <polygon data-channels="20" id="fluxel1-7" points="428.140939 78.5455586 465.532799 78.5455586 465.532799 41.246154 428.140939 41.246154" style="stroke-width: 15;"></polygon>
            <polygon data-channels="34" id="fluxel2-6" points="428.140939 118.891797 465.532799 118.891797 465.532799 81.5923919 428.140939 81.5923919" style="stroke-width: 15;"></polygon>
            <polygon data-channels="48" id="fluxel4-6" points="428.140939 159.575503 465.532799 159.575503 465.532799 122.276098 428.140939 122.276098" style="stroke-width: 15;"></polygon>
            <polygon data-channels="62" id="fluxel5-6" points="428.140939 199.546776 465.532799 199.546776 465.532799 162.247371 428.140939 162.247371" style="stroke-width: 15;"></polygon>
            <polygon data-channels="76" id="fluxel6-6" points="428.178439 240.417965 465.5703 240.417965 465.5703 203.11856 428.178439 203.11856" style="stroke-width: 15;"></polygon>
            <polygon data-channels="90" id="fluxel7-6" points="428.178439 280.764203 465.5703 280.764203 465.5703 243.464798 428.178439 243.464798" style="stroke-width: 15;"></polygon>
            <polygon data-channels="104" id="fluxel8-6" points="428.178439 321.447909 465.5703 321.447909 465.5703 284.148505 428.178439 284.148505" style="stroke-width: 15;"></polygon>
            <polygon data-channels="7" id="fluxel0-7" points="468.716265 37.6743696 506.108125 37.6743696 506.108125 0.374965036 468.716265 0.374965036" style="stroke-width: 15;"></polygon>
            <polygon data-channels="21" id="fluxel1-8" points="468.716265 78.5455586 506.108125 78.5455586 506.108125 41.246154 468.716265 41.246154" style="stroke-width: 15;"></polygon>
            <polygon data-channels="35" id="fluxel2-7" points="468.716265 119.566734 506.108125 119.566734 506.108125 82.267329 468.716265 82.267329" style="stroke-width: 15;"></polygon>
            <polygon data-channels="49" id="fluxel4-7" points="468.716265 159.575503 506.108125 159.575503 506.108125 122.276098 468.716265 122.276098" style="stroke-width: 15;"></polygon>
            <polygon data-channels="63" id="fluxel5-7" points="468.716265 199.546776 506.108125 199.546776 506.108125 162.247371 468.716265 162.247371" style="stroke-width: 15;"></polygon>
            <polygon data-channels="77" id="fluxel6-7" points="468.716265 240.417965 506.108125 240.417965 506.108125 203.11856 468.716265 203.11856" style="stroke-width: 15;"></polygon>
            <polygon data-channels="91" id="fluxel7-7" points="468.716265 280.351741 506.108125 280.351741 506.108125 243.052337 468.716265 243.052337" style="stroke-width: 15;"></polygon>
            <polygon data-channels="105" id="fluxel8-7" points="468.716265 320.960455 506.108125 320.960455 506.108125 283.66105 468.716265 283.66105" style="stroke-width: 15;"></polygon>
            <polygon data-channels="8" id="fluxel0-8" points="509.404092 37.7118662 546.795952 37.7118662 546.795952 0.41246154 509.404092 0.41246154" style="stroke-width: 15;"></polygon>
            <polygon data-channels="22" id="fluxel1-9" points="509.404092 78.6205516 546.795952 78.6205516 546.795952 41.321147 509.404092 41.321147" style="stroke-width: 15;"></polygon>
            <polygon data-channels="36" id="fluxel2-8" points="509.404092 118.96679 546.795952 118.96679 546.795952 81.6673849 509.404092 81.6673849" style="stroke-width: 15;"></polygon>
            <polygon data-channels="50" id="fluxel4-8" points="509.404092 159.650496 546.795952 159.650496 546.795952 122.351091 509.404092 122.351091" style="stroke-width: 15;"></polygon>
            <polygon data-channels="64" id="fluxel5-8" points="509.404092 199.621769 546.795952 199.621769 546.795952 162.322364 509.404092 162.322364" style="stroke-width: 15;"></polygon>
            <polygon data-channels="78" id="fluxel6-8" points="509.441592 240.492958 546.833452 240.492958 546.833452 203.193553 509.441592 203.193553" style="stroke-width: 15;"></polygon>
            <polygon data-channels="92" id="fluxel7-8" points="509.441592 280.839196 546.833452 280.839196 546.833452 243.539791 509.441592 243.539791" style="stroke-width: 15;"></polygon>
            <polygon data-channels="106" id="fluxel8-8" points="509.441592 321.522902 546.833452 321.522902 546.833452 284.223498 509.441592 284.223498" style="stroke-width: 15;"></polygon>
            <polygon data-channels="9" id="fluxel0-9" points="549.979418 37.7118662 587.371278 37.7118662 587.371278 0.41246154 549.979418 0.41246154" style="stroke-width: 15;"></polygon>
            <polygon data-channels="23" id="fluxel1-10" points="549.979418 78.6205516 587.371278 78.6205516 587.371278 41.321147 549.979418 41.321147" style="stroke-width: 15;"></polygon>
            <polygon data-channels="37" id="fluxel2-9" points="549.979418 119.60423 587.371278 119.60423 587.371278 82.3048255 549.979418 82.3048255" style="stroke-width: 15;"></polygon>
            <polygon data-channels="51" id="fluxel4-9" points="549.979418 159.650496 587.371278 159.650496 587.371278 122.351091 549.979418 122.351091" style="stroke-width: 15;"></polygon>
            <polygon data-channels="65" id="fluxel5-9" points="549.979418 199.621769 587.371278 199.621769 587.371278 162.322364 549.979418 162.322364" style="stroke-width: 15;"></polygon>
            <polygon data-channels="79" id="fluxel6-9" points="549.979418 240.492958 587.371278 240.492958 587.371278 203.193553 549.979418 203.193553" style="stroke-width: 15;"></polygon>
            <polygon data-channels="93" id="fluxel7-9" points="549.979418 280.426734 587.371278 280.426734 587.371278 243.12733 549.979418 243.12733" style="stroke-width: 15;"></polygon>
            <polygon data-channels="107" id="fluxel8-9" points="549.979418 321.035448 587.371278 321.035448 587.371278 283.736043 549.979418 283.736043" style="stroke-width: 15;"></polygon>
            <polygon data-channels="10" id="fluxel0-10" points="590.517243 37.7493627 627.909104 37.7493627 627.909104 0.449958044 590.517243 0.449958044" style="stroke-width: 15;"></polygon>
            <polygon data-channels="24" id="fluxel1-11" points="590.517243 78.6205516 627.909104 78.6205516 627.909104 41.321147 590.517243 41.321147" style="stroke-width: 15;"></polygon>
            <polygon data-channels="38" id="fluxel2-10" points="590.517243 118.96679 627.909104 118.96679 627.909104 81.6673849 590.517243 81.6673849" style="stroke-width: 15;"></polygon>
            <polygon data-channels="52" id="fluxel4-10" points="590.517243 159.650496 627.909104 159.650496 627.909104 122.351091 590.517243 122.351091" style="stroke-width: 15;"></polygon>
            <polygon data-channels="66" id="fluxel5-10" points="590.517243 199.621769 627.909104 199.621769 627.909104 162.322364 590.517243 162.322364" style="stroke-width: 15;"></polygon>
            <polygon data-channels="80" id="fluxel6-10" points="590.554744 240.492958 627.946604 240.492958 627.946604 203.193553 590.554744 203.193553" style="stroke-width: 15;"></polygon>
            <polygon data-channels="94" id="fluxel7-10" points="590.554744 280.839196 627.946604 280.839196 627.946604 243.539791 590.554744 243.539791" style="stroke-width: 15;"></polygon>
            <polygon data-channels="108" id="fluxel8-10" points="590.554744 321.522902 627.946604 321.522902 627.946604 284.223498 590.554744 284.223498" style="stroke-width: 15;"></polygon>
            <polygon data-channels="11" id="fluxel0-11" points="631.092569 37.7493627 668.484429 37.7493627 668.484429 0.449958044 631.092569 0.449958044" style="stroke-width: 15;"></polygon>
            <polygon data-channels="25" id="fluxel1-12" points="631.092569 78.6205516 668.484429 78.6205516 668.484429 41.321147 631.092569 41.321147" style="stroke-width: 15;"></polygon>
            <polygon data-channels="39" id="fluxel2-11" points="631.092569 119.641727 668.484429 119.641727 668.484429 82.342322 631.092569 82.342322" style="stroke-width: 15;"></polygon>
            <polygon data-channels="53" id="fluxel4-11" points="631.092569 159.650496 668.484429 159.650496 668.484429 122.351091 631.092569 122.351091" style="stroke-width: 15;"></polygon>
            <polygon data-channels="67" id="fluxel5-11" points="631.092569 199.621769 668.484429 199.621769 668.484429 162.322364 631.092569 162.322364" style="stroke-width: 15;"></polygon>
            <polygon data-channels="81" id="fluxel6-11" points="631.092569 240.492958 668.484429 240.492958 668.484429 203.193553 631.092569 203.193553" style="stroke-width: 15;"></polygon>
            <polygon data-channels="95" id="fluxel7-11" points="631.092569 280.426734 668.484429 280.426734 668.484429 243.12733 631.092569 243.12733" style="stroke-width: 15;"></polygon>
            <polygon data-channels="109" id="fluxel8-11" points="631.092569 321.035448 668.484429 321.035448 668.484429 283.736043 631.092569 283.736043" style="stroke-width: 15;"></polygon>
            <polygon data-channels="12" id="fluxel0-12" points="672.155399 37.8993487 709.547259 37.8993487 709.547259 0.599944058 672.155399 0.599944058" style="stroke-width: 15;"></polygon>
            <polygon data-channels="26" id="fluxel1-13" points="672.155399 78.8080341 709.547259 78.8080341 709.547259 41.5086295 672.155399 41.5086295" style="stroke-width: 15;"></polygon>
            <polygon data-channels="40" id="fluxel2-12" points="672.155399 119.154272 709.547259 119.154272 709.547259 81.8548674 672.155399 81.8548674" style="stroke-width: 15;"></polygon>
            <polygon data-channels="54" id="fluxel4-12" points="672.155399 159.837979 709.547259 159.837979 709.547259 122.538574 672.155399 122.538574" style="stroke-width: 15;"></polygon>
            <polygon data-channels="68" id="fluxel5-12" points="672.155399 199.809251 709.547259 199.809251 709.547259 162.509847 672.155399 162.509847" style="stroke-width: 15;"></polygon>
            <polygon data-channels="82" id="fluxel6-12" points="672.192899 240.68044 709.58476 240.68044 709.58476 203.381036 672.192899 203.381036" style="stroke-width: 15;"></polygon>
            <polygon data-channels="96" id="fluxel7-12" points="672.192899 281.026678 709.58476 281.026678 709.58476 243.727274 672.192899 243.727274" style="stroke-width: 15;"></polygon>
            <polygon data-channels="110" id="fluxel8-12" points="672.192899 321.710385 709.58476 321.710385 709.58476 284.41098 672.192899 284.41098" style="stroke-width: 15;"></polygon>
            <polygon data-channels="13" id="fluxel0-13" points="712.730725 37.8993487 750.122585 37.8993487 750.122585 0.599944058 712.730725 0.599944058" style="stroke-width: 15;"></polygon>
            <polygon data-channels="27" id="fluxel1-14" points="712.730725 78.8080341 750.122585 78.8080341 750.122585 41.5086295 712.730725 41.5086295" style="stroke-width: 15;"></polygon>
            <polygon data-channels="41" id="fluxel2-13" points="712.730725 119.829209 750.122585 119.829209 750.122585 82.5298045 712.730725 82.5298045" style="stroke-width: 15;"></polygon>
            <polygon data-channels="55" id="fluxel4-13" points="712.730725 159.837979 750.122585 159.837979 750.122585 122.538574 712.730725 122.538574" style="stroke-width: 15;"></polygon>
            <polygon data-channels="69" id="fluxel5-13" points="712.730725 199.809251 750.122585 199.809251 750.122585 162.509847 712.730725 162.509847" style="stroke-width: 15;"></polygon>
            <polygon data-channels="83" id="fluxel6-13" points="712.730725 240.68044 750.122585 240.68044 750.122585 203.381036 712.730725 203.381036" style="stroke-width: 15;"></polygon>
            <polygon data-channels="97" id="fluxel7-13" points="712.730725 280.614217 750.122585 280.614217 750.122585 243.314812 712.730725 243.314812" style="stroke-width: 15;"></polygon>
            <polygon data-channels="111" id="fluxel8-13" points="712.730725 321.22293 750.122585 321.22293 750.122585 283.923526 712.730725 283.923526" style="stroke-width: 15; fill: rgb(0, 255, 0);"></polygon>
            <polygon data-channels="-1" id="fluxel-r1-3" points="753.26855 78.8080341 790.660411 78.8080341 790.660411 41.5086295 753.26855 41.5086295" style="stroke-width: 15;"></polygon>
            <polygon data-channels="-1" id="fluxel-r1-2" points="793.881377 78.2080901 850.587751 78.2080901 850.587751 40.9086855 793.881377 40.9086855" style="stroke-width: 15;"></polygon>
            <polygon data-channels="-1" id="fluxel-r4-2" points="793.881377 281.026678 850.587751 281.026678 850.587751 243.727274 793.881377 243.727274" style="stroke-width: 15;"></polygon>
            <polygon data-channels="-1" id="fluxel-r1-1" points="772.018701 37.6743696 809.410561 37.6743696 809.410561 0.374965036 772.018701 0.374965036" style="stroke-width: 15;"></polygon>
            <polygon data-channels="-1" id="fluxel-r1-4" points="772.018701 119.829209 809.410561 119.829209 809.410561 82.5298045 772.018701 82.5298045" style="stroke-width: 15;"></polygon>
            <polygon data-channels="-1" id="fluxel-r4-1" points="772.018701 237.980692 809.410561 237.980692 809.410561 200.681287 772.018701 200.681287" style="stroke-width: 15;"></polygon>
            <polygon data-channels="-1" id="fluxel-r4-4" points="772.018701 321.710385 809.410561 321.710385 809.410561 284.41098 772.018701 284.41098" style="stroke-width: 15;"></polygon>
            <polygon data-channels="-1" id="fluxel-r4-3" points="753.306051 281.026678 790.697911 281.026678 790.697911 243.727274 753.306051 243.727274" style="stroke-width: 15;"></polygon>
            <polygon data-channels="-1" id="fluxel-r1-0" points="813.52759 0.906266597 813.52759 37.2088286 853.905077 37.2088286 853.905077 81.8682169 813.52759 81.8682169 813.52759 118.400604 933.102461 118.400604 933.102461 0.906266597" style="stroke-width: 15;"></polygon>
            <polygon data-channels="-1" id="fluxel-r4-0" points="813.531535 203.943483 813.531535 240.246045 853.909021 240.246045 853.909021 284.905434 813.531535 284.905434 813.531535 321.43782 933.106405 321.43782 933.106405 203.943483" style="stroke-width: 15;"></polygon>
        </g>
    </g>
<polyline id="SvgjsPolyline1007" points="873.3150329589844,59.6534361243248" fill="none" stroke="green" stroke-width="15" class="route"></polyline><polyline id="SvgjsPolyline1007" points="873.3189697265625,262.6906433105469" fill="none" stroke="green" stroke-width="15" class="route"></polyline><polyline id="SvgjsPolyline1008" points="873.3150329589844,59.6534361243248" fill="none" stroke="green" stroke-width="15" class="route"></polyline><polyline id="SvgjsPolyline1009" points="873.3189697265625,262.6906433105469" fill="none" stroke="green" stroke-width="15" class="route"></polyline><defs id="SvgjsDefs1001"></defs><polyline id="SvgjsPolyline1007" points="873.3189697265625,262.6906433105469" fill="none" stroke="green" stroke-width="15" class="route"></polyline><polyline id="SvgjsPolyline1008" points="873.3150329589844,59.6534361243248" fill="none" stroke="green" stroke-width="15" class="route"></polyline><polyline id="SvgjsPolyline1009" points="873.3150329589844,59.6534361243248" fill="none" stroke="green" stroke-width="15" class="route"></polyline><polyline id="SvgjsPolyline1010" points="873.3150329589844,59.6534361243248" fill="none" stroke="green" stroke-width="15" class="route"></polyline><polyline id="SvgjsPolyline1011" points="873.3150329589844,59.6534361243248" fill="none" stroke="green" stroke-width="15" class="route"></polyline><polyline id="SvgjsPolyline1012" points="873.3189697265625,262.6906433105469" fill="none" stroke="green" stroke-width="15" class="route"></polyline><polyline id="SvgjsPolyline1013" points="60.39729128777981,59.69913964346051" fill="none" stroke="green" stroke-width="15" class="route"></polyline><polyline id="SvgjsPolyline1014" points="60.39729128777981,59.69913964346051" fill="none" stroke="green" stroke-width="15" class="route"></polyline><polyline id="SvgjsPolyline1015" points="487.4122009277344,180.89707946777344" fill="none" stroke="green" stroke-width="15" class="route"></polyline><polyline id="SvgjsPolyline1016" points="873.3150329589844,59.6534361243248" fill="none" stroke="green" stroke-width="15" class="route"></polyline><polyline id="SvgjsPolyline1017" points="731.4266357421875,101.17950820922852" fill="none" stroke="green" stroke-width="15" class="route"></polyline><polyline id="SvgjsPolyline1018" points="873.3150329589844,59.6534361243248" fill="none" stroke="green" stroke-width="15" class="route"></polyline><polyline id="SvgjsPolyline1019" points="406.2990417480469,140.92580032348633" fill="none" stroke="green" stroke-width="15" class="route"></polyline><polyline id="SvgjsPolyline1020" points="202.96240997314453,18.820535272359848" fill="none" stroke="green" stroke-width="15" class="route"></polyline><polyline id="SvgjsPolyline1021" points="202.97240447998047,59.7083740234375" fill="none" stroke="green" stroke-width="15" class="route"></polyline><polyline id="SvgjsPolyline1022" points="202.97240447998047,100.05461120605469" fill="none" stroke="green" stroke-width="15" class="route"></polyline><polyline id="SvgjsPolyline1023" points="731.4266357421875,101.17950820922852" fill="none" stroke="green" stroke-width="15" class="route"></polyline><polyline id="SvgjsPolyline1024" points="202.97240447998047,140.7383155822754" fill="none" stroke="green" stroke-width="15" class="route"></polyline><polyline id="SvgjsPolyline1025" points="243.5477294921875,140.7383155822754" fill="none" stroke="green" stroke-width="15" class="route"></polyline><polyline id="SvgjsPolyline1026" points="284.08555603027344,140.7383155822754" fill="none" stroke="green" stroke-width="15" class="route"></polyline><polyline id="SvgjsPolyline1027" points="324.660888671875,140.7383155822754" fill="none" stroke="green" stroke-width="15" class="route"></polyline><polyline id="SvgjsPolyline1028" points="365.7237243652344,140.92580032348633" fill="none" stroke="green" stroke-width="15" class="route"></polyline><polyline id="SvgjsPolyline1029" points="406.2990417480469,140.92580032348633" fill="none" stroke="green" stroke-width="15" class="route"></polyline><polyline id="SvgjsPolyline1030" points="446.8368682861328,140.92580032348633" fill="none" stroke="green" stroke-width="15" class="route"></polyline><polyline id="SvgjsPolyline1031" points="487.4122009277344,140.92580032348633" fill="none" stroke="green" stroke-width="15" class="route"></polyline><polyline id="SvgjsPolyline1032" points="528.1000213623047,141.00079345703125" fill="none" stroke="green" stroke-width="15" class="route"></polyline><polyline id="SvgjsPolyline1033" points="731.4266357421875,141.1882781982422" fill="none" stroke="green" stroke-width="15" class="route"></polyline><polyline id="SvgjsPolyline1034" points="202.97240447998047,140.7383155822754" fill="none" stroke="green" stroke-width="15" class="route"></polyline><polyline id="SvgjsPolyline1035" points="731.4266357421875,181.1595458984375" fill="none" stroke="green" stroke-width="15" class="route"></polyline><polyline id="SvgjsPolyline1036" points="203.0099105834961,221.58078002929688" fill="none" stroke="green" stroke-width="15" class="route"></polyline><polyline id="SvgjsPolyline1037" points="284.12306213378906,221.58078002929688" fill="none" stroke="green" stroke-width="15" class="route"></polyline><polyline id="SvgjsPolyline1038" points="365.76121520996094,221.7682647705078" fill="none" stroke="green" stroke-width="15" class="route"></polyline><polyline id="SvgjsPolyline1039" points="406.2990417480469,221.7682647705078" fill="none" stroke="green" stroke-width="15" class="route"></polyline><polyline id="SvgjsPolyline1040" points="446.87437438964844,221.7682647705078" fill="none" stroke="green" stroke-width="15" class="route"></polyline><polyline id="SvgjsPolyline1041" points="487.4122009277344,221.7682647705078" fill="none" stroke="green" stroke-width="15" class="route"></polyline><polyline id="SvgjsPolyline1042" points="528.1375122070312,221.84325408935547" fill="none" stroke="green" stroke-width="15" class="route"></polyline><polyline id="SvgjsPolyline1043" points="568.6753540039062,221.84325408935547" fill="none" stroke="green" stroke-width="15" class="route"></polyline><polyline id="SvgjsPolyline1044" points="609.2506713867188,221.84325408935547" fill="none" stroke="green" stroke-width="15" class="route"></polyline><polyline id="SvgjsPolyline1045" points="649.7885131835938,221.84325408935547" fill="none" stroke="green" stroke-width="15" class="route"></polyline><polyline id="SvgjsPolyline1046" points="690.8888244628906,222.0307388305664" fill="none" stroke="green" stroke-width="15" class="route"></polyline><polyline id="SvgjsPolyline1047" points="731.4266357421875,222.0307388305664" fill="none" stroke="green" stroke-width="15" class="route"></polyline><polyline id="SvgjsPolyline1048" points="243.5477294921875,261.5145492553711" fill="none" stroke="green" stroke-width="15" class="route"></polyline><polyline id="SvgjsPolyline1049" points="284.12306213378906,261.92701721191406" fill="none" stroke="green" stroke-width="15" class="route"></polyline><polyline id="SvgjsPolyline1050" points="324.660888671875,261.5145492553711" fill="none" stroke="green" stroke-width="15" class="route"></polyline><polyline id="SvgjsPolyline1051" points="365.76121520996094,262.11449432373047" fill="none" stroke="green" stroke-width="15" class="route"></polyline><polyline id="SvgjsPolyline1052" points="406.2990417480469,261.70204162597656" fill="none" stroke="green" stroke-width="15" class="route"></polyline><polyline id="SvgjsPolyline1053" points="446.87437438964844,262.11449432373047" fill="none" stroke="green" stroke-width="15" class="route"></polyline><polyline id="SvgjsPolyline1054" points="487.4122009277344,261.70204162597656" fill="none" stroke="green" stroke-width="15" class="route"></polyline><polyline id="SvgjsPolyline1055" points="528.1375122070312,262.1894989013672" fill="none" stroke="green" stroke-width="15" class="route"></polyline><polyline id="SvgjsPolyline1056" points="528.1375122070312,262.1894989013672" fill="none" stroke="green" stroke-width="15" class="route"></polyline><polyline id="SvgjsPolyline1057" points="568.6753540039062,261.7770309448242" fill="none" stroke="green" stroke-width="15" class="route"></polyline><polyline id="SvgjsPolyline1058" points="609.2506713867188,262.1894989013672" fill="none" stroke="green" stroke-width="15" class="route"></polyline><polyline id="SvgjsPolyline1059" points="649.7885131835938,261.7770309448242" fill="none" stroke="green" stroke-width="15" class="route"></polyline><polyline id="SvgjsPolyline1060" points="690.8888244628906,262.3769760131836" fill="none" stroke="green" stroke-width="15" class="route"></polyline><polyline id="SvgjsPolyline1061" points="731.4266357421875,261.9645233154297" fill="none" stroke="green" stroke-width="15" class="route"></polyline><polyline id="SvgjsPolyline1062" points="790.7146301269531,303.06068420410156 822.2345581054688,262.3769760131836 822.2345581054688,262.3769760131836 873.3189697265625,262.6906433105469" fill="none" stroke="green" stroke-width="15" class="route"></polyline><polyline id="SvgjsPolyline1063" points="243.5477294921875,261.5145492553711" fill="none" stroke="green" stroke-width="15" class="route"></polyline><polyline id="SvgjsPolyline1064" points="731.4266357421875,222.0307388305664" fill="none" stroke="green" stroke-width="15" class="route"></polyline><polyline id="SvgjsPolyline1065" points="203.0099105834961,261.92701721191406" fill="none" stroke="green" stroke-width="15" class="route"></polyline><polyline id="SvgjsPolyline1066" points="731.4266357421875,222.0307388305664" fill="none" stroke="green" stroke-width="15" class="route"></polyline><polyline id="SvgjsPolyline1067" points="203.0099105834961,261.92701721191406" fill="none" stroke="green" stroke-width="15" class="route"></polyline><polyline id="SvgjsPolyline1068" points="731.4266357421875,222.0307388305664" fill="none" stroke="green" stroke-width="15" class="route"></polyline><polyline id="SvgjsPolyline1069" points="690.8888244628906,222.0307388305664" fill="none" stroke="green" stroke-width="15" class="route"></polyline><polyline id="SvgjsPolyline1070" points="731.4266357421875,222.0307388305664" fill="none" stroke="green" stroke-width="15" class="route"></polyline><polyline id="SvgjsPolyline1071" points="203.0099105834961,261.92701721191406" fill="none" stroke="green" stroke-width="15" class="route"></polyline><polyline id="SvgjsPolyline1072" points="202.96240997314453,18.820535272359848" fill="none" stroke="green" stroke-width="15" class="route"></polyline><polyline id="SvgjsPolyline1073" points="202.96240997314453,18.820535272359848" fill="none" stroke="green" stroke-width="15" class="route"></polyline><polyline id="SvgjsPolyline1074" points="649.7885131835938,221.84325408935547" fill="none" stroke="green" stroke-width="15" class="route"></polyline></svg>